<svg width="134" height="48" viewBox="0 0 134 48" fill="none" xmlns="http://www.w3.org/2000/svg">
<path d="M81.8847 33.5585C79.0429 33.5585 76.659 32.6251 74.7327 30.7585C72.8185 28.8916 71.8613 26.5731 71.8613 23.8029C71.8613 21.0324 72.8185 18.7139 74.7327 16.8472C76.659 14.9805 79.0429 14.0471 81.8847 14.0471C83.7395 14.0471 85.416 14.4633 86.914 15.2956C88.2825 16.0498 89.3823 17.048 90.2136 18.2904C90.3567 18.5044 90.284 18.7915 90.0631 18.9238L86.7364 20.9171C86.5113 21.0519 86.2213 20.9728 86.0705 20.758C85.6676 20.1839 85.1464 19.7126 84.5063 19.3441C83.7334 18.8804 82.8596 18.6485 81.8847 18.6485C80.4221 18.6485 79.2035 19.1419 78.2286 20.1288C77.2534 21.1157 76.7659 22.3403 76.7659 23.8029C76.7659 25.2653 77.2534 26.49 78.2286 27.4767C79.2035 28.4635 80.4221 28.9571 81.8847 28.9571C82.8477 28.9571 83.7215 28.7313 84.5063 28.2792C85.1471 27.9008 85.6688 27.419 86.0719 26.8343C86.2215 26.6174 86.513 26.5368 86.739 26.6724L90.0645 28.6649C90.2849 28.7967 90.3579 29.0829 90.216 29.297C89.3844 30.5506 88.2836 31.5551 86.914 32.3101C85.416 33.1424 83.7395 33.5585 81.8847 33.5585Z" fill="#00884B"/>
<path d="M107.228 14.959C107.228 14.7016 107.437 14.493 107.694 14.493H111.506C111.763 14.493 111.972 14.7016 111.972 14.959V32.6465C111.972 32.904 111.763 33.1126 111.506 33.1126H107.694C107.437 33.1126 107.228 32.904 107.228 32.6465V32.0845C107.228 31.659 106.689 31.4421 106.363 31.7157C104.9 32.9443 103.167 33.5585 101.164 33.5585C98.5721 33.5585 96.4082 32.6251 94.6722 30.7585C92.9363 28.8916 92.0684 26.5731 92.0684 23.8029C92.0684 21.0324 92.9363 18.7139 94.6722 16.8472C96.4082 14.9805 98.5721 14.0471 101.164 14.0471C103.174 14.0471 104.907 14.6556 106.362 15.8724C106.688 16.1454 107.228 15.9282 107.228 15.5027V14.959ZM102.074 28.9571C103.548 28.9571 104.773 28.4635 105.748 27.4767C106.734 26.49 107.228 25.2653 107.228 23.8029C107.228 22.3403 106.734 21.1157 105.748 20.1288C104.773 19.1419 103.548 18.6485 102.074 18.6485C100.611 18.6485 99.3926 19.1419 98.4174 20.1288C97.4425 21.1157 96.955 22.3403 96.955 23.8029C96.955 25.2653 97.4425 26.49 98.4174 27.4767C99.3926 28.4635 100.611 28.9571 102.074 28.9571Z" fill="#00884B"/>
<path d="M116.95 33.1125C116.693 33.1125 116.484 32.904 116.484 32.6465V7.27217C116.484 7.01479 116.693 6.80615 116.95 6.80615H120.762C121.02 6.80615 121.228 7.01479 121.228 7.27217V32.6465C121.228 32.904 121.02 33.1125 120.762 33.1125H116.95Z" fill="#00884B"/>
<path d="M12.1164 33.1125C11.859 33.1125 11.6504 32.904 11.6504 32.6465V7.27217C11.6504 7.01479 11.859 6.80615 12.1164 6.80615H15.9284C16.1858 6.80615 16.3945 7.01479 16.3945 7.27217V32.6465C16.3945 32.904 16.1858 33.1125 15.9284 33.1125H12.1164Z" fill="black"/>
<path d="M36.9405 30.7585C35.026 32.6251 32.6482 33.5585 29.8064 33.5585C26.9646 33.5585 24.5807 32.6251 22.6546 30.7585C20.7403 28.8916 19.7832 26.5731 19.7832 23.8029C19.7832 21.0324 20.7403 18.7139 22.6546 16.8472C24.5807 14.9805 26.9646 14.0471 29.8064 14.0471C32.6482 14.0471 35.026 14.9805 36.9405 16.8472C38.8546 18.7139 39.8118 21.0324 39.8118 23.8029C39.8118 26.5731 38.8546 28.8916 36.9405 30.7585ZM29.8064 28.9571C31.2806 28.9571 32.4995 28.4696 33.4626 27.4947C34.4256 26.5077 34.9072 25.2771 34.9072 23.8029C34.9072 22.3284 34.4256 21.1038 33.4626 20.1288C32.4995 19.1419 31.2806 18.6485 29.8064 18.6485C28.344 18.6485 27.1252 19.1419 26.1502 20.1288C25.1753 21.1157 24.6879 22.3403 24.6879 23.8029C24.6879 25.2653 25.1753 26.49 26.1502 27.4767C27.1252 28.4635 28.344 28.9571 29.8064 28.9571Z" fill="black"/>
<path d="M50.923 33.1126C54.7574 33.1126 56.738 34.2392 57.903 34.8308C59.9027 35.8465 62.7909 38.3837 63.5584 40.1266C63.6756 40.3925 63.4612 40.6562 63.1707 40.6562H56.4418C56.2661 40.6562 56.1051 40.5581 56.0089 40.4111C55.7279 39.9819 55.0314 39.0895 53.8254 38.5589C52.1943 37.8417 51.1206 37.7215 50.3302 37.6784H47.9267C46.1908 37.6784 44.7937 37.2205 43.7356 36.305C42.6891 35.3895 42.166 34.1886 42.166 32.7025C42.166 31.7513 42.392 30.8535 42.8438 30.0093C43.2024 29.3562 43.6503 28.8133 44.1869 28.3808C44.4253 28.1888 44.4609 27.8246 44.2524 27.6005C42.8853 26.1311 42.2017 24.3421 42.2017 22.2333C42.2017 19.891 43.0281 17.9411 44.6807 16.3835C46.3453 14.8259 48.4261 14.0471 50.923 14.0471C52.1724 14.0471 53.3591 14.2668 54.4829 14.7062C54.7511 14.8111 55.0559 14.6666 55.1635 14.3995C55.472 13.6344 55.9728 13.0176 56.6657 12.549C57.5218 11.9664 58.5564 11.6751 59.769 11.6751H60.8369C61.0941 11.6751 61.3029 11.8837 61.3029 12.1411V14.708C61.3029 14.8433 61.2439 14.9719 61.1416 15.0604L60.1143 15.9489C60.0297 16.0222 59.9214 16.0608 59.8095 16.0679C59.4057 16.0936 59.0473 16.2107 58.7346 16.4192C58.4485 16.6165 58.2525 16.8752 58.1465 17.1954C58.1041 17.3231 58.1402 17.4609 58.2197 17.5697C59.2051 18.9217 59.6977 20.4762 59.6977 22.2333C59.6977 24.5637 58.8595 26.5077 57.183 28.0653C55.5065 29.623 53.4199 30.4017 50.923 30.4017C49.9667 30.4017 49.0104 30.2666 48.0542 29.9961C47.9274 29.9602 47.7895 29.9748 47.6823 30.052C47.1676 30.4227 46.9101 30.9197 46.9101 31.5432C46.9101 31.995 47.0944 32.3695 47.463 32.6668C47.8316 32.9639 48.3072 33.1126 48.8897 33.1126H50.923ZM50.923 18.5415C49.8052 18.5415 48.8779 18.8923 48.1406 19.5938C47.4155 20.2953 47.0527 21.1751 47.0527 22.2333C47.0527 23.2915 47.4155 24.1713 48.1406 24.8729C48.8779 25.5745 49.8052 25.9251 50.923 25.9251C52.0286 25.9251 52.9502 25.5745 53.6874 24.8729C54.4247 24.1713 54.793 23.2915 54.793 22.2333C54.793 21.1751 54.4247 20.2953 53.6874 19.5938C52.9502 18.8923 52.0286 18.5415 50.923 18.5415Z" fill="black"/>
<path d="M68.223 10.8904C67.6524 11.4611 66.9447 11.7464 66.1008 11.7464C65.2566 11.7464 64.5431 11.4611 63.9606 10.8904C63.3897 10.3196 63.1045 9.61814 63.1045 8.78585C63.1045 7.95354 63.3897 7.25204 63.9606 6.68133C64.5431 6.11062 65.2566 5.82526 66.1008 5.82526C66.9447 5.82526 67.6524 6.11062 68.223 6.68133C68.8055 7.25204 69.0968 7.95354 69.0968 8.78585C69.0968 9.61814 68.8055 10.3196 68.223 10.8904ZM64.1947 33.1126C63.9373 33.1126 63.7287 32.904 63.7287 32.6465V14.959C63.7287 14.7016 63.9373 14.493 64.1947 14.493H68.0068C68.264 14.493 68.4728 14.7016 68.4728 14.959V32.6465C68.4728 32.904 68.264 33.1126 68.0068 33.1126H66.1008H64.1947Z" fill="black"/>
<path d="M82.3621 35.7628V40.656H81.7695V35.7628H82.3621ZM84.4678 37.2091L82.9642 38.818L82.123 39.6909L82.0752 39.0631L82.6773 38.3434L83.7478 37.2091H84.4678ZM83.9293 40.656L82.6997 39.0123L83.0054 38.4867L84.6239 40.656H83.9293Z" fill="black"/>
<path d="M86.4427 40.7198C86.2027 40.7198 85.985 40.6795 85.7898 40.5987C85.5964 40.516 85.4298 40.4002 85.2895 40.2515C85.1516 40.1028 85.0453 39.9267 84.971 39.7228C84.8967 39.5189 84.8594 39.2959 84.8594 39.0536V38.9198C84.8594 38.6395 84.9008 38.39 84.9838 38.1712C85.0665 37.9503 85.1791 37.7634 85.3214 37.6106C85.4638 37.4577 85.625 37.3419 85.8056 37.2634C85.9862 37.1849 86.1731 37.1455 86.3662 37.1455C86.6128 37.1455 86.825 37.1879 87.0035 37.2729C87.1839 37.3577 87.3316 37.4768 87.4462 37.6297C87.5609 37.7804 87.6459 37.9589 87.7012 38.1649C87.7564 38.3688 87.7839 38.5918 87.7839 38.8339V39.0983H85.2098V38.6172H87.1946V38.5727C87.186 38.4198 87.1543 38.2711 87.0991 38.1267C87.0459 37.9822 86.9609 37.8634 86.8442 37.7699C86.7274 37.6765 86.568 37.6297 86.3662 37.6297C86.2325 37.6297 86.1092 37.6583 85.9967 37.7157C85.8842 37.7709 85.7877 37.8538 85.7068 37.9643C85.6262 38.0747 85.5635 38.2094 85.519 38.3688C85.4743 38.5282 85.4519 38.7118 85.4519 38.9198V39.0536C85.4519 39.2172 85.4743 39.3712 85.519 39.5157C85.5656 39.658 85.6325 39.7831 85.7196 39.8915C85.8089 39.9998 85.9161 40.0849 86.0414 40.1464C86.1689 40.2079 86.3131 40.2387 86.4746 40.2387C86.6827 40.2387 86.8591 40.1963 87.0035 40.1115C87.1478 40.0264 87.2743 39.9127 87.3826 39.7706L87.7394 40.0539C87.665 40.1667 87.5704 40.2739 87.4558 40.3757C87.3412 40.4778 87.2 40.5605 87.0322 40.6243C86.8665 40.6879 86.6701 40.7198 86.4427 40.7198Z" fill="black"/>
<path d="M89.9026 40.7198C89.6626 40.7198 89.445 40.6795 89.2495 40.5987C89.0563 40.516 88.8895 40.4002 88.7495 40.2515C88.6113 40.1028 88.5053 39.9267 88.4309 39.7228C88.3566 39.5189 88.3193 39.2959 88.3193 39.0536V38.9198C88.3193 38.6395 88.3608 38.39 88.4435 38.1712C88.5265 37.9503 88.639 37.7634 88.7814 37.6106C88.9235 37.4577 89.085 37.3419 89.2656 37.2634C89.4459 37.1849 89.6328 37.1455 89.8262 37.1455C90.0725 37.1455 90.285 37.1879 90.4633 37.2729C90.6438 37.3577 90.7913 37.4768 90.9062 37.6297C91.0209 37.7804 91.1057 37.9589 91.1609 38.1649C91.2161 38.3688 91.2438 38.5918 91.2438 38.8339V39.0983H88.6698V38.6172H90.6546V38.5727C90.6459 38.4198 90.614 38.2711 90.5588 38.1267C90.5059 37.9822 90.4208 37.8634 90.3041 37.7699C90.1871 37.6765 90.028 37.6297 89.8262 37.6297C89.6925 37.6297 89.5692 37.6583 89.4567 37.7157C89.3441 37.7709 89.2474 37.8538 89.1668 37.9643C89.0859 38.0747 89.0235 38.2094 88.9788 38.3688C88.9343 38.5282 88.9119 38.7118 88.9119 38.9198V39.0536C88.9119 39.2172 88.9343 39.3712 88.9788 39.5157C89.0256 39.658 89.0925 39.7831 89.1796 39.8915C89.2686 39.9998 89.376 40.0849 89.5012 40.1464C89.6286 40.2079 89.7731 40.2387 89.9346 40.2387C90.1426 40.2387 90.3188 40.1963 90.4633 40.1115C90.6077 40.0264 90.734 39.9127 90.8424 39.7706L91.1991 40.0539C91.1248 40.1667 91.0304 40.2739 90.9158 40.3757C90.8011 40.4778 90.6597 40.5605 90.4919 40.6243C90.3262 40.6879 90.1298 40.7198 89.9026 40.7198Z" fill="black"/>
<path d="M92.5213 37.8718V41.9814H91.9287V37.2091H92.4705L92.5213 37.8718ZM94.8437 38.904V38.9709C94.8437 39.2216 94.8141 39.4541 94.7544 39.6685C94.695 39.881 94.6079 40.0658 94.4932 40.2228C94.3807 40.3801 94.2416 40.5022 94.0759 40.5891C93.9102 40.6763 93.7201 40.7198 93.5057 40.7198C93.2869 40.7198 93.0938 40.6837 92.926 40.6115C92.7582 40.5393 92.6159 40.4342 92.4991 40.2962C92.3821 40.1581 92.2887 39.9924 92.2186 39.7992C92.1508 39.6058 92.1039 39.3882 92.0785 39.1461V38.7894C92.1039 38.5344 92.1517 38.3061 92.2218 38.1043C92.292 37.9025 92.3842 37.7306 92.4991 37.5882C92.6159 37.444 92.7571 37.3344 92.9227 37.2601C93.0884 37.1837 93.2795 37.1455 93.4962 37.1455C93.7129 37.1455 93.9049 37.1879 94.0729 37.2729C94.2406 37.3557 94.3818 37.4747 94.4965 37.6297C94.6111 37.7849 94.6971 37.9706 94.7544 38.1873C94.8141 38.4016 94.8437 38.6407 94.8437 38.904ZM94.2511 38.9709V38.904C94.2511 38.732 94.2332 38.5706 94.1971 38.4198C94.1609 38.267 94.1046 38.133 94.0281 38.0183C93.9538 37.9016 93.8583 37.8103 93.7415 37.7443C93.6246 37.6765 93.4854 37.6425 93.3242 37.6425C93.1755 37.6425 93.046 37.6679 92.9355 37.7189C92.8272 37.7699 92.7347 37.8389 92.6583 37.9261C92.5818 38.0109 92.5192 38.1085 92.4705 38.219C92.4236 38.3273 92.3887 38.4398 92.3651 38.5568V39.3819C92.4078 39.5306 92.4672 39.6706 92.5436 39.8023C92.62 39.9318 92.7221 40.0371 92.8496 40.1177C92.9768 40.1963 93.1373 40.2356 93.3305 40.2356C93.4899 40.2356 93.6267 40.2026 93.7415 40.1369C93.8583 40.0688 93.9538 39.9765 94.0281 39.8596C94.1046 39.7428 94.1609 39.6091 94.1971 39.4583C94.2332 39.3055 94.2511 39.1428 94.2511 38.9709Z" fill="black"/>
<path d="M97.8538 37.2091V40.656H97.2613V37.2091H97.8538ZM97.2168 36.295C97.2168 36.1992 97.2455 36.1186 97.3028 36.0529C97.3622 35.987 97.4493 35.9541 97.564 35.9541C97.6765 35.9541 97.7625 35.987 97.8219 36.0529C97.8837 36.1186 97.9144 36.1992 97.9144 36.295C97.9144 36.3863 97.8837 36.4649 97.8219 36.5306C97.7625 36.5944 97.6765 36.6263 97.564 36.6263C97.4493 36.6263 97.3622 36.5944 97.3028 36.5306C97.2455 36.4649 97.2168 36.3863 97.2168 36.295Z" fill="black"/>
<path d="M100.243 37.2091V37.6616H98.3799V37.2091H100.243ZM99.0106 36.3714H99.5999V39.8022C99.5999 39.9192 99.6181 40.0073 99.6542 40.0667C99.6903 40.1261 99.7369 40.1655 99.7942 40.1846C99.8516 40.2037 99.9133 40.2133 99.979 40.2133C100.028 40.2133 100.079 40.2091 100.132 40.2005C100.187 40.19 100.229 40.1814 100.256 40.1751L100.259 40.656C100.213 40.6709 100.151 40.6847 100.075 40.6975C100 40.7124 99.9101 40.7198 99.8038 40.7198C99.6593 40.7198 99.5268 40.6912 99.4056 40.6339C99.2847 40.5765 99.188 40.4808 99.1157 40.347C99.0456 40.2112 99.0106 40.0285 99.0106 39.7992V36.3714Z" fill="black"/>
<path d="M104.56 39.7419C104.56 39.6569 104.541 39.5783 104.502 39.5061C104.466 39.4318 104.391 39.3649 104.276 39.3055C104.164 39.2437 103.994 39.1906 103.767 39.1461C103.575 39.1058 103.402 39.058 103.247 39.0028C103.094 38.9476 102.964 38.8807 102.855 38.8019C102.749 38.7234 102.667 38.6311 102.61 38.5249C102.553 38.4186 102.524 38.2944 102.524 38.1521C102.524 38.0162 102.554 37.8878 102.613 37.7667C102.675 37.6455 102.761 37.5383 102.871 37.4449C102.984 37.3515 103.119 37.2783 103.276 37.2252C103.433 37.172 103.608 37.1455 103.802 37.1455C104.078 37.1455 104.313 37.1944 104.509 37.292C104.704 37.3897 104.854 37.5204 104.958 37.684C105.062 37.8452 105.114 38.0246 105.114 38.2222H104.525C104.525 38.1267 104.496 38.0342 104.439 37.9452C104.384 37.8538 104.302 37.7783 104.193 37.7189C104.087 37.6595 103.957 37.6297 103.802 37.6297C103.638 37.6297 103.505 37.6553 103.403 37.7061C103.304 37.755 103.23 37.8177 103.184 37.8941C103.139 37.9706 103.117 38.0512 103.117 38.1362C103.117 38.1998 103.127 38.2574 103.149 38.3082C103.172 38.3571 103.212 38.4028 103.27 38.4452C103.327 38.4855 103.408 38.5237 103.512 38.5598C103.616 38.596 103.749 38.6321 103.91 38.6682C104.193 38.732 104.425 38.8085 104.608 38.8977C104.79 38.9867 104.926 39.0962 105.015 39.2258C105.105 39.3553 105.149 39.5124 105.149 39.6972C105.149 39.8479 105.117 39.9861 105.053 40.1115C104.992 40.2366 104.902 40.3449 104.783 40.4363C104.666 40.5255 104.526 40.5956 104.362 40.6464C104.201 40.6954 104.019 40.7198 103.818 40.7198C103.514 40.7198 103.257 40.6656 103.047 40.5574C102.836 40.4491 102.677 40.3088 102.569 40.1369C102.461 39.9649 102.406 39.7831 102.406 39.5921H102.999C103.007 39.7536 103.054 39.8819 103.139 39.9775C103.224 40.0709 103.328 40.1378 103.451 40.1783C103.574 40.2165 103.696 40.2357 103.818 40.2357C103.979 40.2357 104.114 40.2144 104.222 40.1718C104.333 40.1294 104.416 40.0709 104.474 39.9966C104.531 39.9223 104.56 39.8374 104.56 39.7419Z" fill="black"/>
<path d="M106.564 37.2091V40.656H105.971V37.2091H106.564ZM105.927 36.295C105.927 36.1992 105.955 36.1186 106.013 36.0529C106.072 35.987 106.159 35.9541 106.274 35.9541C106.386 35.9541 106.472 35.987 106.532 36.0529C106.594 36.1186 106.624 36.1992 106.624 36.295C106.624 36.3863 106.594 36.4649 106.532 36.5306C106.472 36.5944 106.386 36.6263 106.274 36.6263C106.159 36.6263 106.072 36.5944 106.013 36.5306C105.955 36.4649 105.927 36.3863 105.927 36.295Z" fill="black"/>
<path d="M108.096 37.8941V40.656H107.504V37.2091H108.065L108.096 37.8941ZM107.976 38.8019L107.702 38.7924C107.704 38.5568 107.734 38.339 107.794 38.1395C107.853 37.9377 107.941 37.7625 108.058 37.6138C108.175 37.4652 108.321 37.3505 108.495 37.2697C108.669 37.187 108.871 37.1455 109.1 37.1455C109.261 37.1455 109.41 37.1688 109.546 37.2156C109.682 37.2601 109.8 37.3314 109.899 37.429C109.999 37.5267 110.077 37.652 110.132 37.8049C110.187 37.9577 110.215 38.1425 110.215 38.3592V40.656H109.626V38.3879C109.626 38.2073 109.595 38.0631 109.533 37.9547C109.474 37.8464 109.389 37.7678 109.278 37.7189C109.168 37.6679 109.038 37.6425 108.89 37.6425C108.716 37.6425 108.57 37.6732 108.453 37.7348C108.336 37.7965 108.243 37.8813 108.173 37.9897C108.103 38.098 108.052 38.2222 108.02 38.3625C107.99 38.5004 107.976 38.647 107.976 38.8019ZM110.209 38.4771L109.814 38.5981C109.816 38.4091 109.847 38.2276 109.906 38.0533C109.968 37.8792 110.056 37.7243 110.17 37.5882C110.287 37.4523 110.431 37.3452 110.6 37.2666C110.77 37.1858 110.965 37.1455 111.183 37.1455C111.368 37.1455 111.532 37.1699 111.674 37.2186C111.818 37.2676 111.939 37.3431 112.037 37.4449C112.137 37.5449 112.212 37.6732 112.263 37.8303C112.314 37.9876 112.34 38.1744 112.34 38.3911V40.656H111.747V38.3846C111.747 38.1915 111.716 38.0416 111.655 37.9356C111.595 37.8273 111.511 37.7518 111.4 37.7094C111.292 37.6649 111.162 37.6425 111.011 37.6425C110.882 37.6425 110.767 37.6649 110.667 37.7094C110.568 37.7539 110.484 37.8156 110.416 37.8941C110.348 37.9706 110.296 38.0586 110.259 38.1586C110.225 38.2583 110.209 38.3646 110.209 38.4771Z" fill="black"/>
<path d="M113.821 37.8718V41.9814H113.229V37.2091H113.77L113.821 37.8718ZM116.143 38.904V38.9709C116.143 39.2216 116.114 39.4541 116.054 39.6685C115.995 39.881 115.908 40.0658 115.793 40.2228C115.68 40.3801 115.541 40.5022 115.375 40.5891C115.21 40.6763 115.02 40.7198 114.805 40.7198C114.586 40.7198 114.393 40.6837 114.226 40.6115C114.058 40.5393 113.915 40.4342 113.799 40.2962C113.682 40.1581 113.588 39.9924 113.518 39.7992C113.45 39.6058 113.404 39.3882 113.378 39.1461V38.7894C113.404 38.5344 113.452 38.3061 113.521 38.1043C113.592 37.9025 113.684 37.7306 113.799 37.5882C113.915 37.444 114.057 37.3344 114.222 37.2601C114.388 37.1837 114.579 37.1455 114.796 37.1455C115.012 37.1455 115.205 37.1879 115.372 37.2729C115.54 37.3557 115.681 37.4747 115.796 37.6297C115.911 37.7849 115.997 37.9706 116.054 38.1873C116.114 38.4016 116.143 38.6407 116.143 38.904ZM115.551 38.9709V38.904C115.551 38.732 115.533 38.5706 115.497 38.4198C115.461 38.267 115.404 38.133 115.328 38.0183C115.253 37.9016 115.158 37.8103 115.041 37.7443C114.924 37.6765 114.785 37.6425 114.624 37.6425C114.475 37.6425 114.346 37.6679 114.235 37.7189C114.127 37.7699 114.034 37.8389 113.958 37.9261C113.881 38.0109 113.819 38.1085 113.77 38.219C113.723 38.3273 113.688 38.4398 113.665 38.5568V39.3819C113.707 39.5306 113.767 39.6706 113.843 39.8023C113.92 39.9318 114.022 40.0371 114.149 40.1177C114.277 40.1963 114.437 40.2356 114.63 40.2356C114.789 40.2356 114.926 40.2026 115.041 40.1369C115.158 40.0688 115.253 39.9765 115.328 39.8596C115.404 39.7428 115.461 39.6091 115.497 39.4583C115.533 39.3055 115.551 39.1428 115.551 38.9709Z" fill="black"/>
<path d="M117.535 35.7628V40.656H116.942V35.7628H117.535Z" fill="black"/>
<path d="M119.911 40.7198C119.671 40.7198 119.454 40.6795 119.258 40.5987C119.065 40.516 118.898 40.4002 118.758 40.2515C118.62 40.1028 118.514 39.9267 118.44 39.7228C118.365 39.5189 118.328 39.2959 118.328 39.0536V38.9198C118.328 38.6395 118.37 38.39 118.452 38.1712C118.535 37.9503 118.648 37.7634 118.79 37.6106C118.932 37.4577 119.094 37.3419 119.274 37.2634C119.455 37.1849 119.642 37.1455 119.835 37.1455C120.081 37.1455 120.294 37.1879 120.472 37.2729C120.653 37.3577 120.8 37.4768 120.915 37.6297C121.03 37.7804 121.115 37.9589 121.17 38.1649C121.225 38.3688 121.253 38.5918 121.253 38.8339V39.0983H118.679V38.6172H120.663V38.5727C120.655 38.4198 120.623 38.2711 120.568 38.1267C120.515 37.9822 120.43 37.8634 120.313 37.7699C120.196 37.6765 120.037 37.6297 119.835 37.6297C119.701 37.6297 119.578 37.6583 119.465 37.7157C119.353 37.7709 119.256 37.8538 119.176 37.9643C119.095 38.0747 119.032 38.2094 118.988 38.3688C118.943 38.5282 118.921 38.7118 118.921 38.9198V39.0536C118.921 39.2172 118.943 39.3712 118.988 39.5157C119.034 39.658 119.101 39.7831 119.188 39.8915C119.277 39.9998 119.385 40.0849 119.51 40.1464C119.637 40.2079 119.782 40.2387 119.943 40.2387C120.151 40.2387 120.328 40.1963 120.472 40.1115C120.617 40.0264 120.743 39.9127 120.851 39.7706L121.208 40.0539C121.134 40.1667 121.039 40.2739 120.925 40.3757C120.81 40.4778 120.668 40.5605 120.501 40.6243C120.335 40.6879 120.139 40.7198 119.911 40.7198Z" fill="black"/>
</svg>
